<svg width="216" height="49" viewBox="0 0 216 49" fill="none" xmlns="http://www.w3.org/2000/svg">
<circle cx="20.5" cy="24.5" r="20.5" fill="#586D43"/>
<path d="M19 39C19 34.6667 16.2 25.6 5 24C5 28.5 7.8 37.8 19 39Z" fill="white"/>
<path d="M21.8346 38.869C26.1603 38.6108 35.0439 35.2754 35.9736 24C31.4816 24.2682 22.365 27.6174 21.8346 38.869Z" fill="white"/>
<path d="M20.2442 30.5183C23.1979 27.3475 27.3291 18.8049 20.2246 10C17.1573 13.2927 12.867 22.0061 20.2442 30.5183Z" fill="white"/>
<path d="M60.92 37.432C59.72 37.432 58.676 37.324 57.788 37.108C56.9 36.892 56.204 36.676 55.7 36.46C55.196 36.244 54.944 36.136 54.944 36.136L54.728 35.74C54.728 35.74 54.752 35.572 54.8 35.236C54.848 34.876 54.896 34.42 54.944 33.868C55.016 33.292 55.076 32.632 55.124 31.888C55.196 31.12 55.232 30.328 55.232 29.512L57.428 29.332C57.428 30.868 57.548 32.056 57.788 32.896C58.028 33.712 58.46 34.276 59.084 34.588C59.732 34.9 60.644 35.056 61.82 35.056C63.14 35.056 64.208 34.744 65.024 34.12C65.864 33.496 66.284 32.656 66.284 31.6C66.284 30.856 66.02 30.22 65.492 29.692C64.964 29.164 64.292 28.672 63.476 28.216C62.66 27.76 61.796 27.304 60.884 26.848C59.924 26.368 59 25.84 58.112 25.264C57.224 24.688 56.492 24.016 55.916 23.248C55.364 22.48 55.088 21.556 55.088 20.476C55.088 19.132 55.472 17.944 56.24 16.912C57.008 15.88 58.052 15.064 59.372 14.464C60.716 13.864 62.24 13.564 63.944 13.564C65.072 13.564 66.068 13.636 66.932 13.78C67.796 13.924 68.48 14.08 68.984 14.248C69.488 14.416 69.74 14.5 69.74 14.5L69.884 14.824C69.884 14.824 69.824 15.1 69.704 15.652C69.608 16.204 69.5 16.948 69.38 17.884C69.26 18.82 69.152 19.84 69.056 20.944L67.112 21.124L66.824 20.908C66.824 20.908 66.836 20.764 66.86 20.476C66.908 20.164 66.932 19.768 66.932 19.288C66.932 18.112 66.632 17.296 66.032 16.84C65.456 16.36 64.436 16.12 62.972 16.12C61.796 16.12 60.824 16.42 60.056 17.02C59.288 17.596 58.904 18.328 58.904 19.216C58.904 19.888 59.132 20.488 59.588 21.016C60.044 21.52 60.632 21.988 61.352 22.42C62.096 22.852 62.888 23.272 63.728 23.68C64.76 24.184 65.78 24.736 66.788 25.336C67.796 25.936 68.624 26.632 69.272 27.424C69.944 28.192 70.28 29.152 70.28 30.304C70.28 31.72 69.884 32.968 69.092 34.048C68.324 35.104 67.232 35.932 65.816 36.532C64.424 37.132 62.792 37.432 60.92 37.432ZM80.5617 37.432C78.9777 37.432 77.5977 37.096 76.4217 36.424C75.2457 35.752 74.3337 34.816 73.6857 33.616C73.0377 32.392 72.7137 30.964 72.7137 29.332C72.7137 28.06 72.9297 26.872 73.3617 25.768C73.7937 24.664 74.3817 23.692 75.1257 22.852C75.8937 22.012 76.7697 21.352 77.7537 20.872C78.7377 20.392 79.7937 20.152 80.9217 20.152C84.7137 20.152 86.6097 22.024 86.6097 25.768C86.6097 26.104 86.5737 26.452 86.5017 26.812C86.4537 27.172 86.4057 27.46 86.3577 27.676L85.9257 28.072H76.2777C76.2777 29.992 76.6617 31.504 77.4297 32.608C78.1977 33.712 79.2777 34.336 80.6697 34.48C82.0857 34.624 83.7417 34.264 85.6377 33.4L85.8537 33.508L86.3577 34.876C85.8537 35.236 85.2537 35.62 84.5577 36.028C83.8857 36.412 83.1897 36.736 82.4697 37C81.7737 37.288 81.1377 37.432 80.5617 37.432ZM76.3497 26.452L82.1457 26.164C82.4577 26.116 82.6617 26.044 82.7577 25.948C82.8777 25.828 82.9377 25.6 82.9377 25.264C82.9377 24.328 82.7097 23.62 82.2537 23.14C81.7977 22.66 81.1377 22.42 80.2737 22.42C79.2417 22.42 78.3657 22.78 77.6457 23.5C76.9497 24.196 76.5177 25.18 76.3497 26.452ZM94.1013 37.576C94.1013 37.576 94.0173 37.324 93.8493 36.82C93.7053 36.292 93.5013 35.596 93.2373 34.732C92.9973 33.868 92.7213 32.932 92.4093 31.924C92.0973 30.916 91.7853 29.896 91.4733 28.864C91.1853 27.832 90.9093 26.896 90.6453 26.056C90.3813 25.216 90.1653 24.556 89.9973 24.076C89.5893 22.9 88.7973 22.288 87.6213 22.24L87.5493 22.096L87.8013 20.548C87.8013 20.548 87.9933 20.548 88.3773 20.548C88.7853 20.548 89.2413 20.56 89.7453 20.584C90.2493 20.584 90.6573 20.584 90.9693 20.584C91.7373 20.584 92.4693 20.56 93.1653 20.512C93.8613 20.464 94.4253 20.428 94.8573 20.404C95.3133 20.356 95.5413 20.332 95.5413 20.332L95.6133 20.512L95.3613 22.06C94.5933 22.084 94.0773 22.168 93.8133 22.312C93.5493 22.432 93.4173 22.66 93.4173 22.996C93.4173 23.14 93.4773 23.5 93.5973 24.076C93.7173 24.652 93.8853 25.348 94.1013 26.164C94.3173 26.956 94.5333 27.772 94.7493 28.612C94.9653 29.452 95.1813 30.244 95.3973 30.988C95.6133 31.732 95.7813 32.332 95.9013 32.788C96.0213 33.244 96.0813 33.472 96.0813 33.472H96.3333C97.1013 31.456 97.7733 29.728 98.3493 28.288C98.9253 26.824 99.3573 25.66 99.6453 24.796C99.9573 23.908 100.113 23.332 100.113 23.068C100.113 22.756 100.005 22.552 99.7893 22.456C99.5973 22.336 99.2373 22.276 98.7093 22.276H97.5213L97.3773 22.06L97.5933 20.548C97.5933 20.548 97.7973 20.548 98.2053 20.548C98.6373 20.548 99.1533 20.56 99.7533 20.584C100.353 20.584 100.941 20.584 101.517 20.584C101.973 20.584 102.429 20.584 102.885 20.584C103.365 20.56 103.761 20.548 104.073 20.548C104.409 20.548 104.577 20.548 104.577 20.548L104.325 22.24C103.797 22.336 103.401 22.528 103.137 22.816C102.897 23.104 102.573 23.728 102.165 24.688L97.3053 37L94.1013 37.576ZM112.765 37.432C111.181 37.432 109.801 37.096 108.625 36.424C107.449 35.752 106.537 34.816 105.889 33.616C105.241 32.392 104.917 30.964 104.917 29.332C104.917 28.06 105.133 26.872 105.565 25.768C105.997 24.664 106.585 23.692 107.329 22.852C108.097 22.012 108.973 21.352 109.957 20.872C110.941 20.392 111.997 20.152 113.125 20.152C116.917 20.152 118.813 22.024 118.813 25.768C118.813 26.104 118.777 26.452 118.705 26.812C118.657 27.172 118.609 27.46 118.561 27.676L118.129 28.072H108.481C108.481 29.992 108.865 31.504 109.633 32.608C110.401 33.712 111.481 34.336 112.873 34.48C114.289 34.624 115.945 34.264 117.841 33.4L118.057 33.508L118.561 34.876C118.057 35.236 117.457 35.62 116.761 36.028C116.089 36.412 115.393 36.736 114.673 37C113.977 37.288 113.341 37.432 112.765 37.432ZM108.553 26.452L114.349 26.164C114.661 26.116 114.865 26.044 114.961 25.948C115.081 25.828 115.141 25.6 115.141 25.264C115.141 24.328 114.913 23.62 114.457 23.14C114.001 22.66 113.341 22.42 112.477 22.42C111.445 22.42 110.569 22.78 109.849 23.5C109.153 24.196 108.721 25.18 108.553 26.452ZM131.812 35.56C132.46 35.392 132.928 35.14 133.216 34.804C133.504 34.444 133.648 33.964 133.648 33.364L133.792 26.632C133.792 25.504 133.564 24.652 133.108 24.076C132.652 23.476 131.98 23.176 131.092 23.176C130.588 23.176 130.072 23.284 129.544 23.5C129.04 23.692 128.584 23.92 128.176 24.184C127.768 24.424 127.456 24.628 127.24 24.796C127.216 25.444 127.18 26.188 127.132 27.028C127.108 27.868 127.072 28.708 127.024 29.548C126.976 30.388 126.94 31.156 126.916 31.852C126.892 32.524 126.88 33.016 126.88 33.328C126.88 34 126.976 34.48 127.168 34.768C127.36 35.032 127.672 35.164 128.104 35.164C128.296 35.164 128.524 35.152 128.788 35.128C129.076 35.104 129.22 35.092 129.22 35.092L129.292 35.236L128.968 37.108C128.968 37.108 128.764 37.096 128.356 37.072C127.972 37.048 127.504 37.024 126.952 37C126.424 37 125.92 37 125.44 37C124.888 37 124.312 37.012 123.712 37.036C123.112 37.084 122.596 37.12 122.164 37.144C121.756 37.192 121.552 37.216 121.552 37.216L121.804 35.38C122.5 35.284 122.98 35.092 123.244 34.804C123.532 34.492 123.676 34 123.676 33.328V25.048C123.676 24.232 123.544 23.668 123.28 23.356C123.04 23.044 122.596 22.888 121.948 22.888H121.516L121.372 22.708L121.516 21.232C122.476 21.064 123.388 20.908 124.252 20.764C125.14 20.596 125.86 20.452 126.412 20.332C126.988 20.188 127.276 20.116 127.276 20.116L127.528 20.44C127.528 20.44 127.468 20.692 127.348 21.196C127.252 21.676 127.18 22.228 127.132 22.852L127.24 22.996C127.48 22.804 127.828 22.552 128.284 22.24C128.74 21.904 129.22 21.58 129.724 21.268C130.228 20.956 130.708 20.692 131.164 20.476C131.62 20.26 131.98 20.152 132.244 20.152C133.852 20.152 135.112 20.572 136.024 21.412C136.936 22.228 137.392 23.356 137.392 24.796C137.392 25.132 137.356 25.672 137.284 26.416C137.236 27.136 137.176 27.94 137.104 28.828C137.032 29.716 136.96 30.568 136.888 31.384C136.84 32.176 136.816 32.812 136.816 33.292C136.816 33.964 136.912 34.456 137.104 34.768C137.296 35.056 137.608 35.2 138.04 35.2C138.232 35.2 138.472 35.188 138.76 35.164C139.072 35.14 139.228 35.128 139.228 35.128L139.3 35.272L138.976 37.108C138.976 37.108 138.856 37.096 138.616 37.072C138.4 37.072 138.1 37.06 137.716 37.036C137.356 37.036 136.972 37.024 136.564 37C136.18 37 135.82 37 135.484 37C135.1 37 134.692 37.012 134.26 37.036C133.828 37.084 133.408 37.132 133 37.18C132.592 37.228 132.256 37.264 131.992 37.288C131.752 37.336 131.632 37.36 131.632 37.36L131.812 35.56ZM155.473 37.576C155.473 37.576 155.389 37.288 155.221 36.712C155.053 36.136 154.825 35.356 154.537 34.372C154.273 33.364 153.937 32.212 153.529 30.916C153.145 29.596 152.737 28.204 152.305 26.74C151.873 25.276 151.429 23.8 150.973 22.312C150.517 20.824 150.073 19.396 149.641 18.028C149.425 17.308 149.077 16.78 148.597 16.444C148.117 16.108 147.457 15.928 146.617 15.904L146.509 15.724L146.761 13.888C146.761 13.888 146.917 13.9 147.229 13.924C147.541 13.924 147.925 13.936 148.381 13.96C148.861 13.96 149.341 13.972 149.821 13.996C150.325 13.996 150.745 13.996 151.081 13.996C151.657 13.996 152.269 13.984 152.917 13.96C153.565 13.912 154.189 13.864 154.789 13.816C155.389 13.768 155.869 13.732 156.229 13.708C156.613 13.66 156.805 13.636 156.805 13.636L156.949 13.924L156.769 15.652C155.953 15.7 155.329 15.784 154.897 15.904C154.465 16 154.165 16.144 153.997 16.336C153.853 16.504 153.781 16.756 153.781 17.092C153.781 17.284 153.853 17.704 153.997 18.352C154.141 19 154.321 19.804 154.537 20.764C154.777 21.724 155.041 22.756 155.329 23.86C155.617 24.964 155.905 26.056 156.193 27.136C156.481 28.192 156.733 29.164 156.949 30.052C157.189 30.94 157.381 31.648 157.525 32.176C157.693 32.704 157.777 32.968 157.777 32.968H158.173C158.437 32.32 158.737 31.516 159.073 30.556C159.433 29.596 159.817 28.552 160.225 27.424C160.633 26.296 161.029 25.168 161.413 24.04C161.797 22.888 162.145 21.82 162.457 20.836C162.793 19.852 163.057 19.024 163.249 18.352C163.441 17.68 163.537 17.26 163.537 17.092C163.537 16.636 163.369 16.312 163.033 16.12C162.697 15.904 162.133 15.796 161.341 15.796H159.649L159.541 15.616L159.757 13.78C159.757 13.78 160.033 13.804 160.585 13.852C161.137 13.876 161.809 13.912 162.601 13.96C163.417 13.984 164.221 13.996 165.013 13.996C165.613 13.996 166.225 13.996 166.849 13.996C167.473 13.972 167.989 13.948 168.397 13.924C168.829 13.9 169.045 13.888 169.045 13.888L168.793 15.904C168.121 15.928 167.641 16.06 167.353 16.3C167.089 16.516 166.837 16.972 166.597 17.668L159.325 36.82L155.473 37.576ZM168.694 37.432L168.91 35.596C169.63 35.428 170.146 35.164 170.458 34.804C170.77 34.42 170.926 33.916 170.926 33.292V24.76C170.926 24.064 170.818 23.56 170.602 23.248C170.386 22.936 170.026 22.78 169.522 22.78C169.354 22.78 169.162 22.804 168.946 22.852C168.754 22.9 168.658 22.924 168.658 22.924L168.802 21.268C169.522 21.148 170.23 21.028 170.926 20.908C171.622 20.788 172.258 20.668 172.834 20.548C173.41 20.428 173.866 20.332 174.202 20.26C174.562 20.188 174.742 20.152 174.742 20.152L174.994 20.656C174.874 20.896 174.754 21.412 174.634 22.204C174.538 22.996 174.454 23.98 174.382 25.156C174.31 26.308 174.25 27.592 174.202 29.008C174.178 30.4 174.166 31.852 174.166 33.364C174.166 33.988 174.25 34.444 174.418 34.732C174.61 35.02 174.922 35.164 175.354 35.164C175.546 35.164 175.786 35.152 176.074 35.128C176.362 35.104 176.506 35.092 176.506 35.092L176.578 35.272L176.254 37.108C176.254 37.108 176.134 37.096 175.894 37.072C175.678 37.072 175.39 37.06 175.03 37.036C174.67 37.036 174.286 37.024 173.878 37C173.47 37 173.086 37 172.726 37C172.174 37 171.586 37.036 170.962 37.108C170.338 37.18 169.798 37.252 169.342 37.324C168.91 37.396 168.694 37.432 168.694 37.432ZM172.294 16.444C171.598 16.444 171.07 16.228 170.71 15.796C170.374 15.364 170.206 14.86 170.206 14.284C170.206 13.588 170.434 13 170.89 12.52C171.346 12.04 171.934 11.8 172.654 11.8C173.326 11.8 173.842 12.016 174.202 12.448C174.562 12.856 174.742 13.36 174.742 13.96C174.742 14.656 174.514 15.244 174.058 15.724C173.626 16.204 173.038 16.444 172.294 16.444ZM185.15 37.432C183.494 37.432 182.294 37.096 181.55 36.424C180.83 35.728 180.47 34.6 180.47 33.04V24.544C180.47 23.872 180.326 23.404 180.038 23.14C179.774 22.876 179.246 22.732 178.454 22.708L178.238 22.456L178.418 21.088C179.09 20.752 179.738 20.392 180.362 20.008C180.986 19.6 181.538 19.216 182.018 18.856C182.522 18.472 182.906 18.16 183.17 17.92C183.458 17.68 183.602 17.56 183.602 17.56L184.466 17.92C184.466 17.92 184.43 18.172 184.358 18.676C184.286 19.18 184.202 19.9 184.106 20.836L188.93 20.728L189.074 20.836L188.714 22.996L183.962 22.888C183.89 23.968 183.83 25.216 183.782 26.632C183.734 28.048 183.71 29.62 183.71 31.348C183.71 32.476 183.902 33.292 184.286 33.796C184.694 34.276 185.366 34.516 186.302 34.516C186.854 34.516 187.37 34.42 187.85 34.228C188.354 34.012 188.606 33.904 188.606 33.904L189.002 34.948C189.002 34.948 188.846 35.08 188.534 35.344C188.246 35.584 187.874 35.872 187.418 36.208C186.986 36.52 186.554 36.796 186.122 37.036C185.714 37.3 185.39 37.432 185.15 37.432ZM203.224 37.432C202.216 37.432 201.424 37.192 200.848 36.712C200.272 36.232 199.936 35.524 199.84 34.588L199.624 34.516C199.096 35.044 198.568 35.524 198.04 35.956C197.536 36.364 197.08 36.688 196.672 36.928C196.264 37.168 195.928 37.288 195.664 37.288C194.752 37.288 193.936 37.084 193.216 36.676C192.496 36.244 191.932 35.668 191.524 34.948C191.116 34.228 190.912 33.412 190.912 32.5C190.912 31.78 191.092 31.156 191.452 30.628C191.812 30.076 192.292 29.716 192.892 29.548L199.768 27.784L199.804 26.524C199.804 25.42 199.528 24.556 198.976 23.932C198.448 23.284 197.68 22.96 196.672 22.96C196 22.96 195.28 23.128 194.512 23.464C193.768 23.776 193.06 24.196 192.388 24.724L192.172 24.58L191.632 22.78C192.304 22.396 193.048 22 193.864 21.592C194.68 21.184 195.448 20.848 196.168 20.584C196.912 20.296 197.476 20.152 197.86 20.152C199.06 20.152 200.056 20.356 200.848 20.764C201.664 21.148 202.276 21.7 202.684 22.42C203.092 23.116 203.296 23.944 203.296 24.904C203.296 25.216 203.26 25.708 203.188 26.38C203.116 27.052 203.032 27.796 202.936 28.612C202.84 29.428 202.756 30.22 202.684 30.988C202.636 31.732 202.612 32.332 202.612 32.788C202.612 33.292 202.732 33.688 202.972 33.976C203.236 34.24 203.584 34.372 204.016 34.372C204.376 34.372 204.736 34.288 205.096 34.12C205.48 33.928 205.768 33.748 205.96 33.58L206.5 34.264C206.284 34.624 205.996 35.032 205.636 35.488C205.3 35.92 204.916 36.316 204.484 36.676C204.076 37.036 203.656 37.288 203.224 37.432ZM196.6 34.408C197.008 34.408 197.488 34.276 198.04 34.012C198.592 33.724 199.096 33.376 199.552 32.968L199.696 29.44L195.268 30.7C194.644 30.892 194.332 31.348 194.332 32.068C194.332 32.716 194.536 33.268 194.944 33.724C195.376 34.18 195.928 34.408 196.6 34.408ZM207.495 37.396L207.711 35.56C208.335 35.416 208.779 35.212 209.043 34.948C209.307 34.66 209.463 34.3 209.511 33.868C209.583 33.412 209.619 32.836 209.619 32.14V14.932C209.619 14.308 209.559 13.864 209.439 13.6C209.343 13.312 209.127 13.132 208.791 13.06C208.479 12.988 208.011 12.976 207.387 13.024L207.243 12.916L207.423 11.368C208.455 11.248 209.487 11.104 210.519 10.936C211.575 10.744 212.619 10.528 213.651 10.288L213.867 10.864C213.771 11.104 213.663 11.68 213.543 12.592C213.447 13.48 213.351 14.644 213.255 16.084C213.183 17.524 213.111 19.168 213.039 21.016C212.967 22.84 212.907 24.808 212.859 26.92C212.835 29.008 212.823 31.156 212.823 33.364C212.823 34.012 212.907 34.48 213.075 34.768C213.267 35.056 213.579 35.2 214.011 35.2L215.235 35.128L215.307 35.308L214.983 37.108C214.479 37.084 213.879 37.06 213.183 37.036C212.487 37.012 211.887 37 211.383 37C210.927 37 210.339 37.036 209.619 37.108C208.923 37.18 208.215 37.276 207.495 37.396Z" fill="black"/>
</svg>
