<svg width="285" height="58" viewBox="0 0 285 58" fill="none" xmlns="http://www.w3.org/2000/svg">
<path fill-rule="evenodd" clip-rule="evenodd" d="M58 29C58 45.0163 45.0163 58 29 58C12.9837 58 0 45.0163 0 29C0 12.9837 12.9837 0 29 0C45.0163 0 58 12.9837 58 29ZM26.8782 49.5122C26.8782 43.3821 22.9172 30.5561 7.07329 28.2927C7.07329 34.6585 11.0343 47.8146 26.8782 49.5122ZM30.8878 49.3269C37.007 48.9616 49.5741 44.2433 50.8893 28.2927C44.5348 28.6721 31.6381 33.41 30.8878 49.3269ZM28.6379 37.5137C32.8163 33.0282 38.6605 20.9435 28.6102 8.4878C24.2711 13.1457 18.2019 25.472 28.6379 37.5137ZM74.384 46.144C75.568 46.432 76.96 46.576 78.56 46.576C81.056 46.576 83.232 46.176 85.088 45.376C86.976 44.576 88.432 43.472 89.456 42.064C90.512 40.624 91.04 38.96 91.04 37.072C91.04 35.536 90.592 34.256 89.696 33.232C88.832 32.176 87.728 31.248 86.384 30.448C85.04 29.648 83.68 28.912 82.304 28.24C81.184 27.696 80.128 27.136 79.136 26.56C78.176 25.984 77.392 25.36 76.784 24.688C76.176 23.984 75.872 23.184 75.872 22.288C75.872 21.104 76.384 20.128 77.408 19.36C78.432 18.56 79.728 18.16 81.296 18.16C83.248 18.16 84.608 18.48 85.376 19.12C86.176 19.728 86.576 20.816 86.576 22.384C86.576 23.024 86.544 23.552 86.48 23.968L86.432 24.544L86.816 24.832L89.408 24.592C89.536 23.12 89.68 21.76 89.84 20.512C90 19.264 90.144 18.272 90.272 17.536L90.512 16.432L90.32 16L89.312 15.664C88.64 15.44 87.728 15.232 86.576 15.04C85.424 14.848 84.096 14.752 82.592 14.752C80.32 14.752 78.288 15.152 76.496 15.952C74.736 16.752 73.344 17.84 72.32 19.216C71.296 20.592 70.784 22.176 70.784 23.968C70.784 25.408 71.152 26.64 71.888 27.664C72.656 28.688 73.632 29.584 74.816 30.352C76 31.12 77.232 31.824 78.512 32.464C79.728 33.072 80.88 33.68 81.968 34.288C83.056 34.896 83.952 35.552 84.656 36.256C85.36 36.96 85.712 37.808 85.712 38.8C85.712 40.208 85.152 41.328 84.032 42.16C82.944 42.992 81.52 43.408 79.76 43.408C78.192 43.408 76.976 43.2 76.112 42.784C75.28 42.368 74.704 41.616 74.384 40.528C74.064 39.408 73.904 37.824 73.904 35.776L70.976 36.016C70.976 37.104 70.928 38.16 70.832 39.184C70.768 40.176 70.688 41.056 70.592 41.824C70.528 42.56 70.464 43.168 70.4 43.648L70.304 44.32L70.592 44.848L71.6 45.28C72.272 45.568 73.2 45.856 74.384 46.144ZM99.2289 45.232C100.797 46.128 102.637 46.576 104.749 46.576C105.517 46.576 106.365 46.384 107.293 46C108.253 45.648 109.181 45.216 110.077 44.704C111.005 44.16 111.805 43.648 112.477 43.168L111.805 41.344L111.517 41.2C108.989 42.352 106.781 42.832 104.893 42.64C103.037 42.448 101.597 41.616 100.573 40.144C99.5489 38.672 99.0369 36.656 99.0369 34.096H111.901L112.477 33.568C112.541 33.28 112.605 32.896 112.669 32.416C112.765 31.936 112.813 31.472 112.813 31.024C112.813 26.032 110.285 23.536 105.229 23.536C103.725 23.536 102.317 23.856 101.005 24.496C99.6929 25.136 98.5249 26.016 97.5009 27.136C96.5089 28.256 95.7249 29.552 95.1489 31.024C94.5729 32.496 94.2849 34.08 94.2849 35.776C94.2849 37.952 94.7169 39.856 95.5809 41.488C96.4449 43.088 97.6609 44.336 99.2289 45.232ZM106.861 31.552L99.1329 31.936C99.3569 30.24 99.9329 28.928 100.861 28C101.821 27.04 102.989 26.56 104.365 26.56C105.517 26.56 106.397 26.88 107.005 27.52C107.613 28.16 107.917 29.104 107.917 30.352C107.917 30.8 107.837 31.104 107.677 31.264C107.549 31.392 107.277 31.488 106.861 31.552ZM122.466 45.76L122.802 46.768L127.074 46L133.554 29.584C134.098 28.304 134.53 27.472 134.85 27.088C135.202 26.704 135.73 26.448 136.434 26.32L136.77 24.064H136.098C135.682 24.064 135.154 24.08 134.514 24.112H132.69H130.338C129.538 24.08 128.85 24.064 128.274 24.064H127.458L127.17 26.08L127.362 26.368H128.946C129.65 26.368 130.13 26.448 130.386 26.608C130.674 26.736 130.818 27.008 130.818 27.424C130.818 27.776 130.61 28.544 130.194 29.728C129.81 30.88 129.234 32.432 128.466 34.384C127.698 36.304 126.802 38.608 125.778 41.296H125.442L125.202 40.384C125.042 39.776 124.818 38.976 124.53 37.984C124.242 36.992 123.954 35.936 123.666 34.816C123.378 33.696 123.09 32.608 122.802 31.552C122.514 30.464 122.29 29.536 122.13 28.768C121.97 28 121.89 27.52 121.89 27.328C121.89 26.88 122.066 26.576 122.418 26.416C122.77 26.224 123.458 26.112 124.482 26.08L124.818 24.016L124.722 23.776L123.81 23.872C123.234 23.904 122.482 23.952 121.554 24.016C120.626 24.08 119.65 24.112 118.626 24.112H116.994C116.322 24.08 115.714 24.064 115.17 24.064H114.402L114.066 26.128L114.162 26.32C115.73 26.384 116.786 27.2 117.33 28.768C117.554 29.408 117.842 30.288 118.194 31.408C118.546 32.528 118.914 33.776 119.298 35.152C119.714 36.528 120.13 37.888 120.546 39.232C120.962 40.576 121.33 41.824 121.65 42.976C122.002 44.128 122.274 45.056 122.466 45.76ZM142.166 45.232C143.734 46.128 145.574 46.576 147.686 46.576C148.454 46.576 149.302 46.384 150.23 46C151.19 45.648 152.118 45.216 153.014 44.704C153.942 44.16 154.742 43.648 155.414 43.168L154.742 41.344L154.454 41.2C151.926 42.352 149.718 42.832 147.83 42.64C145.974 42.448 144.534 41.616 143.51 40.144C142.486 38.672 141.974 36.656 141.974 34.096H154.838L155.414 33.568C155.478 33.28 155.542 32.896 155.606 32.416C155.702 31.936 155.75 31.472 155.75 31.024C155.75 26.032 153.222 23.536 148.166 23.536C146.662 23.536 145.254 23.856 143.942 24.496C142.63 25.136 141.462 26.016 140.438 27.136C139.446 28.256 138.662 29.552 138.086 31.024C137.51 32.496 137.222 34.08 137.222 35.776C137.222 37.952 137.654 39.856 138.518 41.488C139.382 43.088 140.598 44.336 142.166 45.232ZM149.798 31.552L142.07 31.936C142.294 30.24 142.87 28.928 143.798 28C144.758 27.04 145.926 26.56 147.302 26.56C148.454 26.56 149.334 26.88 149.942 27.52C150.55 28.16 150.854 29.104 150.854 30.352C150.854 30.8 150.774 31.104 150.614 31.264C150.486 31.392 150.214 31.488 149.798 31.552ZM174.955 43.072C174.571 43.52 173.947 43.856 173.083 44.08L172.843 46.48L173.323 46.384C173.675 46.352 174.123 46.304 174.667 46.24C175.211 46.176 175.771 46.112 176.347 46.048C176.923 46.016 177.467 46 177.979 46H179.419C179.963 46.032 180.475 46.048 180.955 46.048C181.467 46.08 181.867 46.096 182.155 46.096L182.635 46.144L183.067 43.696L182.971 43.504L182.347 43.552C181.963 43.584 181.643 43.6 181.387 43.6C180.811 43.6 180.395 43.408 180.139 43.024C179.883 42.608 179.755 41.952 179.755 41.056C179.755 40.416 179.787 39.568 179.851 38.512C179.947 37.424 180.043 36.288 180.139 35.104C180.235 33.92 180.315 32.848 180.379 31.888C180.475 30.896 180.523 30.176 180.523 29.728C180.523 27.808 179.915 26.304 178.699 25.216C177.483 24.096 175.803 23.536 173.659 23.536C173.307 23.536 172.827 23.68 172.219 23.968C171.611 24.256 170.971 24.608 170.299 25.024C169.627 25.44 168.987 25.872 168.379 26.32C167.771 26.736 167.307 27.072 166.987 27.328L166.843 27.136C166.907 26.304 167.003 25.568 167.131 24.928L167.371 23.92L167.035 23.488L165.883 23.776C165.147 23.936 164.187 24.128 163.003 24.352C161.851 24.544 160.635 24.752 159.355 24.976L159.163 26.944L159.355 27.184H159.931C160.795 27.184 161.387 27.392 161.707 27.808C162.059 28.224 162.235 28.976 162.235 30.064V41.104C162.235 42 162.043 42.656 161.659 43.072C161.307 43.456 160.667 43.712 159.739 43.84L159.403 46.288L160.219 46.192C160.795 46.16 161.483 46.112 162.283 46.048C163.083 46.016 163.851 46 164.587 46H166.603C167.339 46.032 167.963 46.064 168.475 46.096L169.291 46.144L169.723 43.648L169.627 43.456L169.051 43.504C168.699 43.536 168.395 43.552 168.139 43.552C167.563 43.552 167.147 43.376 166.891 43.024C166.635 42.64 166.507 42 166.507 41.104C166.507 40.688 166.523 40.032 166.555 39.136C166.587 38.208 166.635 37.184 166.699 36.064C166.763 34.944 166.811 33.824 166.843 32.704C166.907 31.584 166.955 30.592 166.987 29.728C167.275 29.504 167.691 29.232 168.235 28.912C168.779 28.56 169.387 28.256 170.059 28C170.763 27.712 171.451 27.568 172.123 27.568C173.307 27.568 174.203 27.968 174.811 28.768C175.419 29.536 175.723 30.672 175.723 32.176L175.531 41.152C175.531 41.952 175.339 42.592 174.955 43.072ZM203.383 42.496C203.766 43.808 204.07 44.848 204.294 45.616L204.63 46.768L209.766 45.76L219.462 20.224C219.783 19.296 220.118 18.688 220.471 18.4C220.855 18.08 221.495 17.904 222.391 17.872L222.727 15.184L221.863 15.232C221.318 15.264 220.63 15.296 219.799 15.328H217.35C216.294 15.328 215.223 15.312 214.135 15.28C213.079 15.216 212.182 15.168 211.447 15.136L210.342 15.04L210.055 17.488L210.199 17.728H212.454C213.51 17.728 214.262 17.872 214.71 18.16C215.159 18.416 215.383 18.848 215.383 19.456C215.383 19.68 215.255 20.24 214.999 21.136C214.743 22.032 214.391 23.136 213.943 24.448C213.527 25.76 213.062 27.184 212.551 28.72C212.038 30.224 211.51 31.728 210.967 33.232C210.423 34.736 209.911 36.128 209.43 37.408C208.982 38.688 208.583 39.76 208.23 40.624H207.702L207.367 39.568C207.174 38.864 206.919 37.92 206.598 36.736C206.311 35.552 205.975 34.256 205.59 32.848C205.206 31.408 204.822 29.952 204.439 28.48C204.055 27.008 203.702 25.632 203.383 24.352C203.094 23.072 202.855 22 202.663 21.136C202.471 20.272 202.374 19.712 202.374 19.456C202.374 19.008 202.471 18.672 202.663 18.448C202.887 18.192 203.286 18 203.863 17.872C204.439 17.712 205.271 17.6 206.359 17.536L206.598 15.232L206.406 14.848L205.639 14.944C205.159 14.976 204.518 15.024 203.719 15.088C202.919 15.152 202.087 15.216 201.223 15.28C200.359 15.312 199.542 15.328 198.775 15.328H197.094C196.454 15.296 195.814 15.28 195.174 15.28C194.566 15.248 194.055 15.232 193.639 15.232L193.014 15.184L192.678 17.632L192.822 17.872C193.943 17.904 194.822 18.144 195.462 18.592C196.102 19.04 196.566 19.744 196.855 20.704C197.43 22.528 198.023 24.432 198.63 26.416C199.238 28.4 199.831 30.368 200.406 32.32C200.982 34.272 201.527 36.128 202.038 37.888C202.583 39.616 203.031 41.152 203.383 42.496ZM222.547 44.128L222.259 46.576L223.123 46.432C223.731 46.336 224.451 46.24 225.283 46.144C226.115 46.048 226.899 46 227.635 46H229.171C229.715 46.032 230.227 46.048 230.707 46.048C231.187 46.08 231.571 46.096 231.859 46.096L232.339 46.144L232.771 43.696L232.675 43.456L232.099 43.504C231.715 43.536 231.395 43.552 231.139 43.552C230.563 43.552 230.147 43.36 229.891 42.976C229.667 42.592 229.555 41.984 229.555 41.152C229.555 39.136 229.571 37.2 229.603 35.344C229.667 33.456 229.747 31.744 229.843 30.208C229.939 28.64 230.051 27.328 230.179 26.272C230.339 25.216 230.499 24.528 230.659 24.208L230.323 23.536L229.603 23.68C229.155 23.776 228.547 23.904 227.779 24.064C227.011 24.224 226.163 24.384 225.235 24.544C224.307 24.704 223.363 24.864 222.403 25.024L222.211 27.232L222.595 27.136C222.883 27.072 223.139 27.04 223.363 27.04C224.035 27.04 224.515 27.248 224.803 27.664C225.091 28.08 225.235 28.752 225.235 29.68V41.056C225.235 41.888 225.027 42.56 224.611 43.072C224.195 43.552 223.507 43.904 222.547 44.128ZM224.947 17.728C225.427 18.304 226.131 18.592 227.059 18.592C228.051 18.592 228.835 18.272 229.411 17.632C230.019 16.992 230.323 16.208 230.323 15.28C230.323 14.48 230.083 13.808 229.603 13.264C229.123 12.688 228.435 12.4 227.539 12.4C226.579 12.4 225.795 12.72 225.187 13.36C224.579 14 224.275 14.784 224.275 15.712C224.275 16.48 224.499 17.152 224.947 17.728ZM239.4 45.232C240.393 46.128 241.993 46.576 244.201 46.576C244.521 46.576 244.952 46.4 245.497 46.048C246.072 45.728 246.648 45.36 247.225 44.944C247.833 44.496 248.329 44.112 248.712 43.792L249.337 43.264L248.809 41.872L247.801 42.304C247.161 42.56 246.473 42.688 245.736 42.688C244.488 42.688 243.592 42.368 243.049 41.728C242.536 41.056 242.281 39.968 242.281 38.464C242.281 36.16 242.312 34.064 242.376 32.176C242.441 30.288 242.521 28.624 242.617 27.184L248.952 27.328L249.432 24.448L249.24 24.304L242.809 24.448C242.936 23.2 243.049 22.24 243.145 21.568L243.288 20.56L242.137 20.08L241.561 20.56C241.208 20.88 240.697 21.296 240.025 21.808C239.385 22.288 238.648 22.8 237.816 23.344C236.984 23.856 236.12 24.336 235.225 24.784L234.984 26.608L235.273 26.944C236.329 26.976 237.033 27.168 237.385 27.52C237.768 27.872 237.96 28.496 237.96 29.392V40.72C237.96 42.8 238.441 44.304 239.4 45.232ZM265.131 45.616C265.899 46.256 266.955 46.576 268.299 46.576C268.875 46.384 269.435 46.048 269.979 45.568C270.555 45.088 271.067 44.56 271.515 43.984C271.995 43.376 272.379 42.832 272.667 42.352L271.947 41.44C271.691 41.664 271.307 41.904 270.795 42.16C270.315 42.384 269.835 42.496 269.355 42.496C268.779 42.496 268.315 42.32 267.963 41.968C267.643 41.584 267.483 41.056 267.483 40.384C267.483 39.776 267.515 38.976 267.579 37.984C267.675 36.96 267.787 35.904 267.915 34.816C268.043 33.728 268.155 32.736 268.251 31.84C268.347 30.944 268.395 30.288 268.395 29.872C268.395 28.592 268.123 27.488 267.579 26.56C267.035 25.6 266.219 24.864 265.131 24.352C264.075 23.808 262.747 23.536 261.147 23.536C260.635 23.536 259.883 23.728 258.891 24.112C257.931 24.464 256.907 24.912 255.819 25.456C254.731 26 253.739 26.528 252.843 27.04L253.563 29.44L253.851 29.632C254.747 28.928 255.691 28.368 256.683 27.952C257.707 27.504 258.667 27.28 259.563 27.28C260.907 27.28 261.931 27.712 262.635 28.576C263.371 29.408 263.739 30.56 263.739 32.032L263.691 33.712L254.523 36.064C253.723 36.288 253.083 36.768 252.603 37.504C252.123 38.208 251.883 39.04 251.883 40C251.883 41.216 252.155 42.304 252.699 43.264C253.243 44.224 253.995 44.992 254.955 45.568C255.915 46.112 257.003 46.384 258.219 46.384C258.571 46.384 259.019 46.224 259.563 45.904C260.107 45.584 260.715 45.152 261.387 44.608C262.091 44.032 262.795 43.392 263.499 42.688L263.787 42.784C263.915 44.032 264.363 44.976 265.131 45.616ZM261.387 42.016C260.651 42.368 260.011 42.544 259.467 42.544C258.571 42.544 257.835 42.24 257.259 41.632C256.715 41.024 256.443 40.288 256.443 39.424C256.443 38.464 256.859 37.856 257.691 37.6L263.595 35.92L263.403 40.624C262.795 41.168 262.123 41.632 261.387 42.016ZM274.281 44.08L273.993 46.528C274.953 46.368 275.897 46.24 276.826 46.144C277.785 46.048 278.569 46 279.177 46C279.849 46 280.65 46.016 281.578 46.048C282.505 46.08 283.306 46.112 283.978 46.144L284.41 43.744L284.314 43.504L282.681 43.6C282.105 43.6 281.69 43.408 281.434 43.024C281.21 42.64 281.098 42.016 281.098 41.152C281.098 38.208 281.113 35.344 281.146 32.56C281.21 29.744 281.289 27.12 281.385 24.688C281.482 22.224 281.578 20.032 281.673 18.112C281.802 16.192 281.93 14.64 282.057 13.456C282.217 12.24 282.362 11.472 282.49 11.152L282.202 10.384C280.826 10.704 279.434 10.992 278.026 11.248C276.65 11.472 275.273 11.664 273.897 11.824L273.658 13.888L273.849 14.032C274.681 13.968 275.306 13.984 275.721 14.08C276.169 14.176 276.457 14.416 276.586 14.8C276.746 15.152 276.826 15.744 276.826 16.576V39.52C276.826 40.448 276.777 41.216 276.681 41.824C276.617 42.4 276.41 42.88 276.057 43.264C275.706 43.616 275.113 43.888 274.281 44.08Z" fill="white"/>
</svg>
