<svg width="17" height="34" viewBox="0 0 17 34" fill="none" xmlns="http://www.w3.org/2000/svg">
<path id="Vector" d="M0 0V3.4H1.7V27.2C1.7 29.0035 2.41643 30.7331 3.69167 32.0083C4.96692 33.2836 6.69653 34 8.5 34C10.3035 34 12.0331 33.2836 13.3083 32.0083C14.5836 30.7331 15.3 29.0035 15.3 27.2V3.4H17V0H0ZM6.8 23.8C5.78 23.8 5.1 23.12 5.1 22.1C5.1 21.08 5.78 20.4 6.8 20.4C7.82 20.4 8.5 21.08 8.5 22.1C8.5 23.12 7.82 23.8 6.8 23.8ZM10.2 17C9.18 17 8.5 16.32 8.5 15.3C8.5 14.28 9.18 13.6 10.2 13.6C11.22 13.6 11.9 14.28 11.9 15.3C11.9 16.32 11.22 17 10.2 17ZM11.9 8.5H5.1V3.4H11.9V8.5Z" fill="#596E44"/>
</svg>
