<svg width="28" height="34" viewBox="0 0 28 34" fill="none" xmlns="http://www.w3.org/2000/svg">
<path id="Vector" d="M20.8659 0V3.4H19.1494V8.9131C19.1494 10.8817 19.5803 12.8248 20.4127 14.6115L27.7627 30.3807C27.9439 30.7693 28.0235 31.1968 27.994 31.6238C27.9646 32.0508 27.827 32.4636 27.5942 32.8242C27.3613 33.1847 27.0405 33.4814 26.6614 33.6869C26.2823 33.8924 25.857 34.0001 25.4249 34H2.57514C2.14298 34.0001 1.71774 33.8924 1.33863 33.6869C0.959526 33.4814 0.638742 33.1847 0.405848 32.8242C0.172953 32.4636 0.0354419 32.0508 0.00598743 31.6238C-0.023467 31.1968 0.0560832 30.7693 0.237306 30.3807L7.58725 14.6115C8.41992 12.825 8.85096 10.8807 8.85058 8.9131V3.4H7.1341V0H20.8659ZM15.7165 3.4H12.2835V10.2H15.7165V3.4Z" fill="#596E44"/>
</svg>
