<svg width="45" height="45" viewBox="0 0 45 45" fill="none" xmlns="http://www.w3.org/2000/svg">
<g id="Group 36">
<path id="Arrow 2" d="M37.6705 27.5735L36.8533 28.1498L36.8533 28.1498L37.6705 27.5735ZM34.7462 33.8638L34.8324 34.8601L34.7462 33.8638ZM21.4576 35.013L31.9178 39.9035L30.9229 28.3994L21.4576 35.013ZM33.1798 22.9404L36.8533 28.1498L38.4878 26.9972L34.8143 21.7878L33.1798 22.9404ZM34.66 32.8675L30.3379 33.2413L30.5102 35.2339L34.8324 34.8601L34.66 32.8675ZM36.8533 28.1498C38.1875 30.0419 36.9666 32.6681 34.66 32.8675L34.8324 34.8601C38.6766 34.5276 40.7114 30.1507 38.4878 26.9972L36.8533 28.1498Z" fill="#596E44"/>
<path id="Arrow 4" d="M10.9189 33.253L10.9212 32.253L10.9212 32.253L10.9189 33.253ZM7.47773 27.2299L6.61508 26.7241L7.47773 27.2299ZM14.224 15.7235L4.1856 21.43L14.1467 27.2703L14.224 15.7235ZM17.2956 32.2681L10.9212 32.253L10.9165 34.253L17.2908 34.2681L17.2956 32.2681ZM8.34039 27.7356L10.5346 23.9932L8.80929 22.9817L6.61508 26.7241L8.34039 27.7356ZM10.9212 32.253C8.60609 32.2475 7.16942 29.7328 8.34039 27.7356L6.61508 26.7241C4.66345 30.0527 7.05791 34.2438 10.9165 34.253L10.9212 32.253Z" fill="#596E44"/>
<path id="Arrow 3" d="M19.1042 6.91505L19.9599 7.43262L19.9599 7.43262L19.1042 6.91505ZM26.0393 7.07161L26.9174 6.59318L26.0393 7.07161ZM32.4207 18.7842L32.7062 7.24076L22.5665 12.7652L32.4207 18.7842ZM16.6607 12.8868L19.9599 7.43262L18.2486 6.39748L14.9494 11.8516L16.6607 12.8868ZM25.1611 7.55004L27.2367 11.3595L28.9929 10.4027L26.9174 6.59318L25.1611 7.55004ZM19.9599 7.43262C21.1581 5.45168 24.0535 5.51704 25.1611 7.55004L26.9174 6.59318C25.0713 3.20484 20.2457 3.09591 18.2486 6.39748L19.9599 7.43262Z" fill="#596E44"/>
</g>
</svg>
