<svg width="32" height="18" viewBox="0 0 32 18" fill="none" xmlns="http://www.w3.org/2000/svg">
<path id="Vector" d="M23.5165 0.430699C23.3844 0.298201 23.2275 0.193081 23.0548 0.121359C22.8821 0.0496358 22.697 0.0127174 22.51 0.0127174C22.323 0.0127174 22.1379 0.0496358 21.9652 0.121359C21.7925 0.193081 21.6356 0.298201 21.5035 0.430699L13.4517 8.49178L15.4647 10.5071L23.5165 2.43168C24.0589 1.88855 24.0589 0.973822 23.5165 0.430699ZM29.5696 0.416406L15.4647 14.5376L10.4966 9.57803C10.2296 9.31079 9.8676 9.16065 9.4901 9.16065C9.1126 9.16065 8.75056 9.31079 8.48363 9.57803C8.21669 9.84527 8.06673 10.2077 8.06673 10.5857C8.06673 10.9636 8.21669 11.3261 8.48363 11.5933L14.4511 17.5676C15.0078 18.1251 15.9072 18.1251 16.464 17.5676L31.5825 2.44597C31.7148 2.31374 31.8198 2.15668 31.8915 1.98378C31.9631 1.81088 32 1.62552 32 1.43833C32 1.25115 31.9631 1.06579 31.8915 0.89289C31.8198 0.719987 31.7148 0.562926 31.5825 0.430699H31.5682C31.4394 0.295779 31.2849 0.188135 31.1137 0.114156C30.9426 0.0401762 30.7583 0.00136861 30.5719 3.55516e-05C30.3855 -0.00129751 30.2007 0.0348708 30.0285 0.106395C29.8564 0.177919 29.7003 0.283341 29.5696 0.416406ZM0.417579 11.6076L6.38503 17.5819C6.9418 18.1394 7.8412 18.1394 8.39797 17.5819L9.3973 16.5815L2.43052 9.57803C2.29845 9.44553 2.14157 9.34041 1.96886 9.26869C1.79616 9.19696 1.61102 9.16004 1.42405 9.16004C1.23708 9.16004 1.05194 9.19696 0.879236 9.26869C0.706532 9.34041 0.549653 9.44553 0.417579 9.57803C-0.139193 10.1354 -0.139193 11.0502 0.417579 11.6076Z" fill="#596E44"/>
</svg>
