<svg width="35" height="32" viewBox="0 0 35 32" fill="none" xmlns="http://www.w3.org/2000/svg">
<g id="Vector 4">
<path d="M1.07138 1.16349C10.2714 -0.0365125 16.238 5.66349 18.0714 8.66349C14.4714 11.0634 13.9047 15.6635 14.0714 17.6636C2.47138 17.6636 0.571378 6.66352 1.07138 1.16349Z" fill="#596E44"/>
<path d="M34.0713 8.66349C15.2713 3.46342 14.5713 21.1635 16.5713 30.6636H19.5713V22.6636C32.7713 23.0636 34.738 13.4968 34.0713 8.66349Z" fill="#596E44"/>
<path d="M1.07138 1.16349C10.2714 -0.0365125 16.238 5.66349 18.0714 8.66349C14.4714 11.0634 13.9047 15.6635 14.0714 17.6636C2.47138 17.6636 0.571378 6.66352 1.07138 1.16349Z" stroke="#596E44"/>
<path d="M34.0713 8.66349C15.2713 3.46342 14.5713 21.1635 16.5713 30.6636H19.5713V22.6636C32.7713 23.0636 34.738 13.4968 34.0713 8.66349Z" stroke="#596E44"/>
</g>
</svg>
