<svg width="22" height="22" viewBox="0 0 22 22" fill="none" xmlns="http://www.w3.org/2000/svg">
<g id="Group 18">
<circle id="Ellipse 4" cx="11" cy="11" r="11" fill="#586D43"/>
<path id="Vector" d="M15.6155 6.13593C15.5226 6.07562 15.4187 6.03421 15.3097 6.01406C15.2008 5.99392 15.089 5.99543 14.9806 6.01851C14.8723 6.0416 14.7695 6.0858 14.6783 6.14861C14.587 6.21141 14.509 6.29157 14.4487 6.38452L9.7216 13.671L7.41624 11.5394C7.3349 11.4642 7.23955 11.4057 7.13562 11.3674C7.0317 11.329 6.92124 11.3115 6.81054 11.3158C6.58699 11.3246 6.37607 11.4218 6.22419 11.5861C6.0723 11.7503 5.99189 11.9682 6.00065 12.1918C6.0094 12.4153 6.1066 12.6262 6.27087 12.7781L9.29781 15.5767C9.29781 15.5767 9.38471 15.6515 9.42492 15.6777C9.51786 15.738 9.62177 15.7795 9.73074 15.7996C9.8397 15.8198 9.95157 15.8183 10.0599 15.7952C10.1683 15.7721 10.2711 15.7279 10.3624 15.6651C10.4537 15.6023 10.5317 15.5221 10.5919 15.4291L15.8641 7.30267C15.9244 7.20975 15.9658 7.10585 15.9859 6.99692C16.0061 6.88799 16.0046 6.77615 15.9815 6.6678C15.9584 6.55945 15.9142 6.45672 15.8514 6.36546C15.7886 6.2742 15.7084 6.1962 15.6155 6.13593Z" fill="white"/>
</g>
</svg>
