<svg width="14" height="28" viewBox="0 0 14 28" fill="none" xmlns="http://www.w3.org/2000/svg">
<path id="Vector" d="M0 0V2.8H1.4V22.4C1.4 23.8852 1.99 25.3096 3.0402 26.3598C4.09041 27.41 5.51479 28 7 28C8.48521 28 9.90959 27.41 10.9598 26.3598C12.01 25.3096 12.6 23.8852 12.6 22.4V2.8H14V0H0ZM5.6 19.6C4.76 19.6 4.2 19.04 4.2 18.2C4.2 17.36 4.76 16.8 5.6 16.8C6.44 16.8 7 17.36 7 18.2C7 19.04 6.44 19.6 5.6 19.6ZM8.4 14C7.56 14 7 13.44 7 12.6C7 11.76 7.56 11.2 8.4 11.2C9.24 11.2 9.8 11.76 9.8 12.6C9.8 13.44 9.24 14 8.4 14ZM9.8 7H4.2V2.8H9.8V7Z" fill="white"/>
</svg>
