<svg width="12" height="21" viewBox="0 0 12 21" fill="none" xmlns="http://www.w3.org/2000/svg">
<path id="Vector" d="M2.37788 0.415567L11.6959 9.72428C11.8065 9.83509 11.8846 9.95515 11.9303 10.0844C11.9768 10.2137 12 10.3522 12 10.5C12 10.6478 11.9768 10.7863 11.9303 10.9156C11.8846 11.0449 11.8065 11.1649 11.6959 11.2757L2.37788 20.6121C2.11981 20.8707 1.79723 21 1.41014 21C1.02304 21 0.691244 20.8615 0.414746 20.5844C0.138248 20.3074 -9.53674e-07 19.9842 -9.53674e-07 19.6148C-9.53674e-07 19.2454 0.138248 18.9222 0.414746 18.6451L8.54378 10.5L0.414746 2.35488C0.156682 2.09631 0.0276489 1.77789 0.0276489 1.39963C0.0276489 1.02063 0.165897 0.692614 0.442395 0.415567C0.718893 0.138523 1.04147 0 1.41014 0C1.7788 0 2.10138 0.138523 2.37788 0.415567Z" fill="#A6AD9F"/>
</svg>
