<svg width="15" height="10" viewBox="0 0 15 10" fill="none" xmlns="http://www.w3.org/2000/svg">
<path id="Vector" d="M14.7032 1.98157L8.05409 9.74654C7.97493 9.83871 7.88918 9.90384 7.79683 9.94194C7.70448 9.98065 7.60554 10 7.5 10C7.39446 10 7.29551 9.98065 7.20317 9.94194C7.11082 9.90384 7.02506 9.83871 6.94591 9.74654L0.277045 1.98157C0.0923483 1.76651 1.01389e-07 1.4977 1.05236e-07 1.17512C1.09082e-07 0.852534 0.0989447 0.576037 0.296834 0.345622C0.494723 0.115208 0.725594 8.65262e-09 0.989446 1.1799e-08C1.2533 1.49454e-08 1.48417 0.115208 1.68206 0.345622L7.5 7.11982L13.3179 0.345622C13.5026 0.130569 13.7301 0.0230419 14.0003 0.0230419C14.271 0.0230419 14.5053 0.138249 14.7032 0.368664C14.9011 0.599078 15 0.867895 15 1.17512C15 1.48234 14.9011 1.75115 14.7032 1.98157Z" fill="#A6AD9F"/>
</svg>
