<svg width="12" height="21" viewBox="0 0 12 21" fill="none" xmlns="http://www.w3.org/2000/svg">
<path id="Vector" d="M9.62212 20.5844L0.304147 11.2757C0.193548 11.1649 0.115391 11.0449 0.0696771 10.9156C0.0232255 10.7863 0 10.6478 0 10.5C0 10.3522 0.0232255 10.2137 0.0696771 10.0844C0.115391 9.95514 0.193548 9.83509 0.304147 9.72427L9.62212 0.387863C9.88019 0.129287 10.2028 0 10.5899 0C10.977 0 11.3088 0.138522 11.5853 0.415567C11.8618 0.692612 12 1.01583 12 1.38522C12 1.75462 11.8618 2.07784 11.5853 2.35488L3.45622 10.5L11.5853 18.6451C11.8433 18.9037 11.9724 19.2221 11.9724 19.6004C11.9724 19.9794 11.8341 20.3074 11.5576 20.5844C11.2811 20.8615 10.9585 21 10.5899 21C10.2212 21 9.89862 20.8615 9.62212 20.5844Z" fill="#A6AD9F"/>
</svg>
