<svg width="15" height="10" viewBox="0 0 15 10" fill="none" xmlns="http://www.w3.org/2000/svg">
<path id="Vector" d="M0.296835 8.01843L6.94591 0.253456C7.02507 0.16129 7.11082 0.0961592 7.20317 0.0580639C7.29552 0.0193543 7.39446 -3.32449e-07 7.5 -3.27835e-07C7.60554 -3.23222e-07 7.70449 0.0193543 7.79683 0.058064C7.88918 0.0961592 7.97494 0.16129 8.05409 0.253456L14.723 8.01843C14.9077 8.23349 15 8.5023 15 8.82488C15 9.14747 14.9011 9.42396 14.7032 9.65438C14.5053 9.88479 14.2744 10 14.0106 10C13.7467 10 13.5158 9.88479 13.3179 9.65438L7.5 2.88018L1.68206 9.65438C1.49736 9.86943 1.26992 9.97696 0.999737 9.97696C0.729024 9.97696 0.494723 9.86175 0.296835 9.63134C0.0989452 9.40092 -3.99177e-07 9.1321 -3.85748e-07 8.82488C-3.72319e-07 8.51766 0.0989453 8.24885 0.296835 8.01843Z" fill="#A6AD9F"/>
</svg>
