<svg width="24" height="33" viewBox="0 0 24 33" fill="none" xmlns="http://www.w3.org/2000/svg">
<path id="Vector" d="M12.0001 0C5.38366 0 0 5.39367 0 12.023V17.0617C0 17.1505 0.0184136 17.2341 0.0470571 17.3129C0.019181 17.5244 0 17.7384 0 17.9574C0 20.4577 1.86618 22.5304 4.27786 22.8538C4.50113 23.6113 5.20289 24.1656 6.03175 24.1656C7.03967 24.1656 7.85982 23.3454 7.85982 22.3375L7.86008 13.5788C7.86008 12.5707 7.03993 11.7507 6.03201 11.7507C5.20262 11.7507 4.50084 12.3057 4.27759 13.0637C3.18763 13.2098 2.21166 13.7154 1.46621 14.4537V12.0234C1.46672 6.20209 6.19189 1.4662 11.9998 1.4662C17.8077 1.4662 22.5334 6.20209 22.5334 12.0227V14.4705C21.7861 13.7232 20.804 13.2112 19.7058 13.0636C19.4828 12.3059 18.7808 11.7506 17.9514 11.7506C16.9435 11.7506 16.1233 12.5708 16.1233 13.5787V22.3373C16.1233 23.3453 16.9435 24.1654 17.9514 24.1654C18.7803 24.1654 19.482 23.611 19.7053 22.8537C20.7777 22.71 21.7405 22.219 22.4811 21.4998C22.2576 24.0122 20.8917 26.263 18.7261 27.6193L16.1824 29.2131C15.8883 29.0323 15.5251 28.9318 15.1139 28.9318C14.6362 28.9318 14.1375 29.0642 13.6722 29.3141C13.1385 29.6013 12.7043 30.0176 12.4495 30.4875C12.1449 31.0491 12.1199 31.6501 12.3812 32.1363C12.6764 32.6833 13.2684 32.9971 14.0065 32.9971C14.4842 32.9971 14.9824 32.8651 15.4476 32.6147C16.3829 32.1117 16.9322 31.2678 16.9161 30.4839L19.5045 28.862C22.3093 27.1058 23.9841 24.0803 23.9841 20.7685V17.9555C23.9841 17.9504 23.9826 17.9461 23.9826 17.941C23.9818 17.7399 23.9655 17.5428 23.9414 17.3481C23.9788 17.2602 23.9997 17.1632 23.9997 17.0614L24 12.0233C24 5.39371 18.6165 0.000231769 11.9999 0.000231769L12.0001 0ZM5.67042 13.5793C5.67042 13.3831 5.83614 13.2177 6.03204 13.2177C6.22794 13.2177 6.39366 13.3834 6.39366 13.5793V22.338C6.39366 22.5339 6.22794 22.6996 6.03204 22.6996C5.83588 22.6996 5.67042 22.5339 5.67042 22.338V22.1646C5.67042 22.0704 5.65098 21.9809 5.61876 21.8981C5.61876 21.8973 5.61901 21.8965 5.61901 21.8958L5.61927 14.0196C5.65149 13.937 5.67093 13.8478 5.67093 13.7539V13.5795L5.67042 13.5793ZM4.51931 14.5145V21.4034C2.80221 21.1954 1.46674 19.7308 1.46674 17.9574C1.46674 16.1857 2.80221 14.722 4.51931 14.5143V14.5145ZM14.7537 31.3235C14.5051 31.4572 14.2396 31.5312 14.0069 31.5312C13.7896 31.5312 13.6867 31.4659 13.674 31.4416C13.6627 31.4207 13.6637 31.3273 13.7397 31.1872C13.8581 30.969 14.0872 30.7575 14.3681 30.6064C14.6169 30.4726 14.8821 30.399 15.1148 30.399C15.3322 30.399 15.435 30.4642 15.4478 30.488C15.4956 30.577 15.3261 31.0158 14.7537 31.3235ZM18.3134 22.3383C18.3134 22.5342 18.1477 22.6999 17.9518 22.6999C17.7559 22.6999 17.5902 22.5342 17.5902 22.3383L17.5904 13.5796C17.5904 13.3835 17.7561 13.218 17.952 13.218C18.1482 13.218 18.3137 13.3837 18.3137 13.5796V13.6512C18.307 13.6852 18.3029 13.7203 18.3029 13.7561V21.8961C18.3029 21.9477 18.3124 21.9968 18.3257 22.0441C18.319 22.0838 18.3137 22.1234 18.3137 22.1648L18.3134 22.3383ZM19.4026 21.4132V14.5054C21.1497 14.6845 22.5171 16.1645 22.5171 17.958C22.5176 19.753 21.1501 21.2343 19.4026 21.4132Z" fill="white"/>
</svg>
