<svg width="27" height="28" viewBox="0 0 27 28" fill="none" xmlns="http://www.w3.org/2000/svg">
<path id="Vector" d="M13.3109 7.96528C12.0752 7.96528 10.8672 8.33172 9.83972 9.01825C8.81225 9.70479 8.01143 10.6806 7.53853 11.8223C7.06564 12.9639 6.94191 14.2202 7.18299 15.4322C7.42407 16.6442 8.01913 17.7575 8.89293 18.6313C9.76672 19.505 10.88 20.1001 12.092 20.3412C13.304 20.5823 14.5602 20.4585 15.7019 19.9856C16.8436 19.5127 17.8194 18.7119 18.5059 17.6845C19.1925 16.657 19.5589 15.449 19.5589 14.2133C19.5589 12.5562 18.9006 10.967 17.7289 9.79527C16.5572 8.62355 14.968 7.96528 13.3109 7.96528V7.96528ZM13.3109 18.8313C12.3975 18.8313 11.5047 18.5605 10.7453 18.053C9.98581 17.5456 9.3939 16.8244 9.04437 15.9805C8.69484 15.1367 8.60339 14.2081 8.78158 13.3123C8.95977 12.4165 9.3996 11.5936 10.0454 10.9478C10.6913 10.3019 11.5142 9.86211 12.41 9.68392C13.3058 9.50573 14.2343 9.59719 15.0782 9.94672C15.922 10.2962 16.6433 10.8882 17.1507 11.6476C17.6581 12.407 17.929 13.2999 17.929 14.2133C17.9254 15.4369 17.4377 16.6095 16.5724 17.4748C15.7071 18.3401 14.5346 18.8277 13.3109 18.8313ZM19.2872 0.902344H7.33459C5.38933 0.902344 3.52375 1.67509 2.14825 3.05059C0.772749 4.4261 0 6.29168 0 8.23693V20.1896C0 22.1348 0.772749 24.0004 2.14825 25.3759C3.52375 26.7514 5.38933 27.5242 7.33459 27.5242H19.2872C21.2325 27.5242 23.0981 26.7514 24.4736 25.3759C25.8491 24.0004 26.6218 22.1348 26.6218 20.1896V8.23693C26.6218 6.29168 25.8491 4.4261 24.4736 3.05059C23.0981 1.67509 21.2325 0.902344 19.2872 0.902344V0.902344ZM24.9919 20.1896C24.9919 21.7026 24.3909 23.1536 23.3211 24.2234C22.2512 25.2932 20.8002 25.8943 19.2872 25.8943H7.33459C5.82161 25.8943 4.3706 25.2932 3.30077 24.2234C2.23093 23.1536 1.62991 21.7026 1.62991 20.1896V8.23693C1.62991 6.72396 2.23093 5.27295 3.30077 4.20311C4.3706 3.13328 5.82161 2.53225 7.33459 2.53225H19.2872C20.8002 2.53225 22.2512 3.13328 23.3211 4.20311C24.3909 5.27295 24.9919 6.72396 24.9919 8.23693V20.1896ZM21.7321 7.15032C21.7321 7.41896 21.6524 7.68157 21.5032 7.90493C21.354 8.1283 21.1418 8.30239 20.8936 8.40519C20.6454 8.50799 20.3723 8.53489 20.1089 8.48248C19.8454 8.43007 19.6034 8.30071 19.4134 8.11076C19.2235 7.9208 19.0941 7.67878 19.0417 7.41531C18.9893 7.15183 19.0162 6.87873 19.119 6.63054C19.2218 6.38235 19.3959 6.17022 19.6192 6.02098C19.8426 5.87173 20.1052 5.79207 20.3739 5.79207C20.7341 5.79207 21.0796 5.93517 21.3343 6.18989C21.589 6.44461 21.7321 6.79009 21.7321 7.15032Z" fill="white"/>
</svg>
