<svg width="30" height="27" viewBox="0 0 30 27" fill="none" xmlns="http://www.w3.org/2000/svg">
<g id="Vector 4">
<path d="M1.06023 1.13795C8.82293 0.12542 13.8574 4.93492 15.4044 7.46624C12.3668 9.49123 11.8887 13.3727 12.0293 15.0603C2.24151 15.0603 0.63834 5.77872 1.06023 1.13795Z" fill="white"/>
<path d="M28.9046 7.46624C13.0417 3.07856 12.4511 18.0134 14.1386 26.0293H16.6699V19.2791C27.8077 19.6166 29.4671 11.5445 28.9046 7.46624Z" fill="white"/>
<path d="M1.06023 1.13795C8.82293 0.12542 13.8574 4.93492 15.4044 7.46624C12.3668 9.49123 11.8887 13.3727 12.0293 15.0603C2.24151 15.0603 0.63834 5.77872 1.06023 1.13795Z" stroke="white"/>
<path d="M28.9046 7.46624C13.0417 3.07856 12.4511 18.0134 14.1386 26.0293H16.6699V19.2791C27.8077 19.6166 29.4671 11.5445 28.9046 7.46624Z" stroke="white"/>
</g>
</svg>
