<svg width="28" height="26" viewBox="0 0 28 26" fill="none" xmlns="http://www.w3.org/2000/svg">
<path id="Vector" d="M6.50566 3.04473C6.50529 3.78997 6.21062 4.50454 5.68648 5.03124C5.16234 5.55794 4.45166 5.85362 3.71078 5.85325C2.96991 5.85288 2.25952 5.55648 1.7359 5.02925C1.21229 4.50202 0.918331 3.78716 0.918702 3.04192C0.919072 2.29668 1.21374 1.58211 1.73788 1.05541C2.26202 0.528714 2.9727 0.233026 3.71357 0.233399C4.45445 0.233771 5.16484 0.530174 5.68845 1.0574C6.21207 1.58463 6.50603 2.29949 6.50566 3.04473ZM6.58946 7.934H1.00251V25.5241H6.58946V7.934ZM15.4168 7.934H9.85783V25.5241H15.361V16.2935C15.361 11.1514 22.0234 10.6737 22.0234 16.2935V25.5241H27.5405V14.3828C27.5405 5.71416 17.6796 6.0373 15.361 10.2943L15.4168 7.934Z" fill="white"/>
</svg>
