<svg width="28" height="31" viewBox="0 0 28 31" fill="none" xmlns="http://www.w3.org/2000/svg">
<path id="Vector" d="M12.908 0.197274C13.5219 -0.0323999 14.1926 -0.062342 14.8244 0.111719L15.092 0.197274L25.9809 4.28061C26.533 4.48764 27.0149 4.84731 27.3705 5.3177C27.726 5.7881 27.9406 6.34985 27.9891 6.9375L28 7.19416V15.5366C27.9999 18.0573 27.3193 20.5312 26.0301 22.6971C24.7408 24.8631 22.8906 26.6408 20.6749 27.8426L20.2611 28.0588L15.0438 30.6675C14.7565 30.8109 14.4427 30.8935 14.1221 30.9101C13.8014 30.9267 13.4808 30.877 13.1802 30.7639L12.9562 30.6675L7.73889 28.0588C5.48428 26.9315 3.57587 25.2164 2.21512 23.0945C0.854362 20.9725 0.0917475 18.5226 0.00777796 16.0033L0 15.5366V7.19416C9.04563e-06 6.60481 0.167419 6.02758 0.482741 5.52967C0.798064 5.03177 1.24833 4.63367 1.78111 4.38172L2.01911 4.28061L12.908 0.197274ZM14 3.11083L3.11111 7.19416V15.5366C3.11115 17.4888 3.63604 19.4052 4.63082 21.0849C5.6256 22.7647 7.05369 24.1461 8.76556 25.0846L9.13111 25.2759L14 27.7104L18.8689 25.2759C20.6154 24.4029 22.0949 23.0763 23.1527 21.4351C24.2104 19.7938 24.8074 17.8984 24.8811 15.9473L24.8889 15.5366V7.19416L14 3.11083ZM19.3402 10.2057C19.6202 9.92673 19.9958 9.76476 20.3908 9.7527C20.7859 9.74063 21.1707 9.87939 21.4671 10.1408C21.7635 10.4022 21.9494 10.7666 21.9868 11.16C22.0243 11.5534 21.9106 11.9464 21.6689 12.2591L21.5398 12.4053L13.398 20.5486C13.1014 20.8451 12.7063 21.0224 12.2876 21.0468C11.8689 21.0712 11.4559 20.9409 11.1269 20.6808L10.9776 20.5486L7.238 16.8091C6.95605 16.5298 6.79151 16.1533 6.77805 15.7566C6.76459 15.36 6.90324 14.9732 7.16561 14.6755C7.42799 14.3777 7.79424 14.1915 8.18941 14.155C8.58459 14.1184 8.97879 14.2343 9.29133 14.4788L9.43756 14.6079L12.1878 17.3582L19.3402 10.2057Z" fill="white"/>
</svg>
