<svg width="27" height="23" viewBox="0 0 27 23" fill="none" xmlns="http://www.w3.org/2000/svg">
<path id="Vector" d="M24.7313 0.433187C24.7313 0.433187 27.1938 -0.546303 26.9878 1.83227C26.9199 2.81176 26.3045 6.2403 25.8253 9.94813L24.1836 20.9326C24.1836 20.9326 24.0467 22.5418 22.8152 22.8218C21.5842 23.1011 19.7372 21.8423 19.395 21.5624C19.1211 21.3522 14.2646 18.2036 12.5545 16.6649C12.0753 16.2447 11.5277 15.4055 12.623 14.426L19.805 7.42926C20.6259 6.59007 21.4467 4.63109 18.0265 7.00967L8.4491 13.656C8.4491 13.656 7.35445 14.3562 5.30269 13.7264L0.855645 12.3267C0.855645 12.3267 -0.786011 11.2774 2.01875 10.2281C8.85983 6.93984 17.2741 3.58178 24.73 0.433187H24.7313Z" fill="white"/>
</svg>
