<svg width="28" height="32" viewBox="0 0 28 32" fill="none" xmlns="http://www.w3.org/2000/svg">
<g id="Group">
<path id="Vector" d="M13.5326 7.39466e-09C14.7468 -6.76272e-05 15.915 0.463828 16.7984 1.29677C17.6818 2.12971 18.2135 3.26874 18.2847 4.4808L18.2926 4.76005V17.3837L18.3085 17.417C18.3442 17.4768 18.391 17.529 18.4465 17.5709C19.7409 18.5919 20.6851 19.9908 21.1478 21.5731C21.6106 23.1554 21.5689 24.8426 21.0286 26.4001C20.4882 27.9577 19.4761 29.3082 18.1329 30.264C16.7896 31.2197 15.182 31.7333 13.5334 31.7333C11.8849 31.7333 10.2772 31.2197 8.93399 30.264C7.59076 29.3082 6.57864 27.9577 6.03831 26.4001C5.49798 24.8426 5.45629 23.1554 5.91902 21.5731C6.38176 19.9908 7.32593 18.5919 8.62032 17.5709C8.66075 17.5391 8.697 17.5024 8.72821 17.4615L8.77264 17.3821V4.76005C8.77264 3.49761 9.27414 2.28687 10.1668 1.39419C11.0595 0.501504 12.2702 7.39466e-09 13.5326 7.39466e-09ZM13.5326 3.17337C13.144 3.17342 12.7689 3.3161 12.4785 3.57435C12.1881 3.8326 12.0025 4.18845 11.9571 4.57441L11.946 4.76005V17.3869C11.946 18.4579 11.4113 19.3322 10.7655 19.9097L10.5862 20.062C9.81932 20.6664 9.25685 21.4919 8.97503 22.4268C8.69321 23.3616 8.70569 24.3605 9.01077 25.288C9.31585 26.2155 9.89877 27.0268 10.6805 27.6118C11.4622 28.1968 12.405 28.5272 13.3808 28.5583C14.3567 28.5894 15.3186 28.3197 16.136 27.7856C16.9534 27.2516 17.5867 26.4791 17.9503 25.5729C18.3138 24.6667 18.3898 23.6706 18.1681 22.7197C17.9464 21.7688 17.4376 20.9091 16.7107 20.2572L16.4791 20.062C15.8159 19.5384 15.2256 18.7086 15.132 17.6741L15.1193 17.3901V4.76005C15.1193 4.33924 14.9521 3.93566 14.6546 3.6381C14.357 3.34054 13.9534 3.17337 13.5326 3.17337ZM16.706 23.8003C16.7045 24.6139 16.3905 25.3959 15.8289 25.9847C15.2673 26.5734 14.501 26.924 13.6883 26.9639C12.8757 27.0038 12.0787 26.7301 11.4621 26.1992C10.8455 25.6683 10.4564 24.9208 10.3752 24.1113L10.3593 23.8003H16.706Z" fill="white"/>
</g>
</svg>
