<svg width="28" height="23" viewBox="0 0 28 23" fill="none" xmlns="http://www.w3.org/2000/svg">
<path id="Vector" d="M27.0813 2.89558C26.1014 3.36146 25.0452 3.66762 23.9508 3.81404C25.0707 3.10856 25.936 1.99044 26.3432 0.646037C25.287 1.31158 24.1163 1.77747 22.8819 2.04368C21.8766 0.898944 20.464 0.233398 18.8606 0.233398C15.8701 0.233398 13.4268 2.78909 13.4268 5.94378C13.4268 6.39635 13.4777 6.83561 13.5668 7.24825C9.03649 7.00866 5.00249 4.73249 2.3174 1.28496C1.84656 2.12355 1.57932 3.10856 1.57932 4.14681C1.57932 6.13014 2.53374 7.88718 4.0099 8.8855C3.10639 8.8855 2.2665 8.61928 1.52842 8.21995V8.25988C1.52842 11.0286 3.4118 13.3447 5.90601 13.8638C5.10522 14.093 4.26453 14.1249 3.44998 13.957C3.79561 15.0917 4.47252 16.0846 5.38555 16.7961C6.29858 17.5076 7.40182 17.9019 8.54019 17.9236C6.61053 19.5215 4.21859 20.3852 1.75748 20.3728C1.32481 20.3728 0.892141 20.3462 0.459473 20.293C2.87733 21.9169 5.7533 22.862 8.83288 22.862C18.8606 22.862 24.3708 14.1566 24.3708 6.60933C24.3708 6.35642 24.3708 6.11682 24.358 5.86392C25.427 5.06526 26.3432 4.05363 27.0813 2.89558Z" fill="white"/>
</svg>
